<svg id="visual" viewBox="0 0 960 540" width="960" height="540" xmlns="http://www.w3.org/2000/svg" xmlns:xlink="http://www.w3.org/1999/xlink" version="1.1"><rect x="0" y="0" width="960" height="540" fill="#FFFFFF"></rect><path d="M0 439L22.8 435.2C45.7 431.3 91.3 423.7 137 420.3C182.7 417 228.3 418 274 411.8C319.7 405.7 365.3 392.3 411.2 396.5C457 400.7 503 422.3 548.8 426.3C594.7 430.3 640.3 416.7 686 415.7C731.7 414.7 777.3 426.3 823 431.2C868.7 436 914.3 434 937.2 433L960 432L960 541L937.2 541C914.3 541 868.7 541 823 541C777.3 541 731.7 541 686 541C640.3 541 594.7 541 548.8 541C503 541 457 541 411.2 541C365.3 541 319.7 541 274 541C228.3 541 182.7 541 137 541C91.3 541 45.7 541 22.8 541L0 541Z" fill="#4FACF7" stroke-linecap="round" stroke-linejoin="miter"></path></svg>